<svg xmlns="http://www.w3.org/2000/svg" width="577" height="469" viewBox="0 0 577 469">
  <defs>
    <filter id="a" width="200%" height="200%" x="-50%" y="-50%" filterUnits="objectBoundingBox">
      <feGaussianBlur in="SourceGraphic"/>
    </filter>
    <filter id="b" width="200%" height="200%" x="-50%" y="-50%" filterUnits="objectBoundingBox">
      <feGaussianBlur in="SourceGraphic"/>
    </filter>
  </defs>
  <g fill="none" fill-rule="evenodd">
    <g transform="translate(86 62)">
      <path fill="#0F6BFF" stroke="#0F6BFF" d="M7.71029173 55.2310467L7.71029173 89.3336128C7.71029173 90.2193937 8.12933455 90.6622842 8.9674202 90.6622842L13.5768913 90.6622842C14.4149769 90.6622842 14.8340197 90.2193937 14.8340197 89.3336128L14.8340197 55.2310467 23.2148762 55.2310467C24.0529618 55.2310467 24.4720047 54.7881562 24.4720047 53.9023753L24.4720047 49.4734706C24.4720047 48.5876897 24.0529618 48.1447992 23.2148762 48.1447992L14.8340197 48.1447992 14.8340197 41.9443326C14.8340197 38.4012089 17.3482767 35.7438661 20.7006192 35.7438661L25.7291331 35.7438661C26.5672188 35.7438661 26.9862616 35.3009756 26.9862616 34.4151947L26.9862616 29.98629C26.9862616 29.100509 26.5672188 28.6576186 25.7291331 28.6576186L20.7006192 28.6576186C12.3197628 28.6576186 7.71029173 33.5294137 7.71029173 41.9443326L7.71029173 48.1447992 1.42464938 48.1447992C.586563738 48.1447992.167520915 48.5876897.167520915 49.4734706L.167520915 53.9023753C.167520915 54.7881562.586563738 55.2310467 1.42464938 55.2310467L7.71029173 55.2310467zM53.3859594 91.5480651C60.5096874 91.5480651 62.6049015 86.2333795 62.6049015 86.2333795L63.0239444 86.2333795 63.0239444 89.3336128C63.0239444 90.2193937 63.4429872 90.6622842 64.2810728 90.6622842L68.8905439 90.6622842C69.7286295 90.6622842 70.1476724 90.2193937 70.1476724 89.3336128L70.1476724 46.8161278C70.1476724 45.9303469 69.7286295 45.4874564 68.8905439 45.4874564L64.2810728 45.4874564C63.4429872 45.4874564 63.0239444 45.9303469 63.0239444 46.8161278L63.0239444 75.1611178C63.0239444 80.4758034 59.252559 84.4618176 54.2240451 84.4618176L47.1003171 84.4618176C43.3289317 84.4618176 40.8146748 81.8044748 40.8146748 77.8184606L40.8146748 46.8161278C40.8146748 45.9303469 40.3956319 45.4874564 39.5575463 45.4874564L34.9480752 45.4874564C34.1099896 45.4874564 33.6909468 45.9303469 33.6909468 46.8161278L33.6909468 77.8184606C33.6909468 86.67627 38.3004178 91.5480651 47.1003171 91.5480651L53.3859594 91.5480651zM80.6237429 45.4874564C79.7856573 45.4874564 79.3666145 45.9303469 79.3666145 46.8161278L79.3666145 51.2450325C79.3666145 52.1308134 79.7856573 52.5737039 80.6237429 52.5737039L86.9093853 52.5737039 86.9093853 77.3755701C86.9093853 85.7904891 91.5188563 90.6622842 99.8997128 90.6622842L104.928227 90.6622842C105.766312 90.6622842 106.185355 90.2193937 106.185355 89.3336128L106.185355 84.9047081C106.185355 84.0189272 105.766312 83.5760367 104.928227 83.5760367L99.8997128 83.5760367C96.5473702 83.5760367 94.0331133 80.9186939 94.0331133 77.3755701L94.0331133 52.5737039 102.41397 52.5737039C103.252055 52.5737039 103.671098 52.1308134 103.671098 51.2450325L103.671098 46.8161278C103.671098 45.9303469 103.252055 45.4874564 102.41397 45.4874564L94.0331133 45.4874564 94.0331133 36.1867565C94.0331133 35.3009756 93.6140705 34.8580851 92.7759848 34.8580851L88.1665138 34.8580851C87.3284281 34.8580851 86.9093853 35.3009756 86.9093853 36.1867565L86.9093853 45.4874564 80.6237429 45.4874564zM136.775481 91.5480651C143.899209 91.5480651 145.994423 86.2333795 145.994423 86.2333795L146.413466 86.2333795 146.413466 89.3336128C146.413466 90.2193937 146.832509 90.6622842 147.670595 90.6622842L152.280066 90.6622842C153.118151 90.6622842 153.537194 90.2193937 153.537194 89.3336128L153.537194 46.8161278C153.537194 45.9303469 153.118151 45.4874564 152.280066 45.4874564L147.670595 45.4874564C146.832509 45.4874564 146.413466 45.9303469 146.413466 46.8161278L146.413466 75.1611178C146.413466 80.4758034 142.642081 84.4618176 137.613567 84.4618176L130.489839 84.4618176C126.718453 84.4618176 124.204197 81.8044748 124.204197 77.8184606L124.204197 46.8161278C124.204197 45.9303469 123.785154 45.4874564 122.947068 45.4874564L118.337597 45.4874564C117.499511 45.4874564 117.080469 45.9303469 117.080469 46.8161278L117.080469 77.8184606C117.080469 86.67627 121.68994 91.5480651 130.489839 91.5480651L136.775481 91.5480651zM166.946564 89.3336128C166.946564 90.2193937 167.365607 90.6622842 168.203693 90.6622842L172.813164 90.6622842C173.65125 90.6622842 174.070292 90.2193937 174.070292 89.3336128L174.070292 60.9886228C174.070292 55.6739372 177.841678 51.687923 182.870192 51.687923L188.317748 51.687923C189.155834 51.687923 189.574877 51.2450325 189.574877 50.3592515L189.574877 45.9303469C189.574877 45.0445659 189.155834 44.6016754 188.317748 44.6016754L183.708277 44.6016754C176.584549 44.6016754 174.489335 49.9163611 174.489335 49.9163611L174.070292 49.9163611 174.070292 46.8161278C174.070292 45.9303469 173.65125 45.4874564 172.813164 45.4874564L168.203693 45.4874564C167.365607 45.4874564 166.946564 45.9303469 166.946564 46.8161278L166.946564 89.3336128zM203.40329 64.0888561L203.40329 58.33128C203.40329 54.3452658 205.917547 51.687923 209.688932 51.687923L219.74596 51.687923C223.517346 51.687923 226.031603 54.3452658 226.031603 58.33128L226.031603 64.0888561 203.40329 64.0888561zM231.898202 71.1751036C232.736288 71.1751036 233.155331 70.7322131 233.155331 69.8464322L233.155331 58.33128C233.155331 49.4734706 228.545859 44.6016754 219.74596 44.6016754L209.688932 44.6016754C200.889033 44.6016754 196.279562 49.4734706 196.279562 58.33128L196.279562 77.8184606C196.279562 86.67627 200.889033 91.5480651 209.688932 91.5480651L219.74596 91.5480651C228.545859 91.5480651 233.155331 86.67627 233.155331 77.8184606L233.155331 77.3755701C233.155331 76.4897892 232.736288 76.0468987 231.898202 76.0468987L227.288731 76.0468987C226.450645 76.0468987 226.031603 76.4897892 226.031603 77.3755701L226.031603 77.8184606C226.031603 81.8044748 223.517346 84.4618176 219.74596 84.4618176L209.688932 84.4618176C205.917547 84.4618176 203.40329 81.8044748 203.40329 77.8184606L203.40329 71.1751036 231.898202 71.1751036zM264.682141 45.4874564C263.844055 45.4874564 263.425012 45.9303469 263.425012 46.8161278L263.425012 51.2450325C263.425012 52.1308134 263.844055 52.5737039 264.682141 52.5737039L270.967783 52.5737039 270.967783 77.3755701C270.967783 85.7904891 275.577254 90.6622842 283.95811 90.6622842L288.986624 90.6622842C289.82471 90.6622842 290.243753 90.2193937 290.243753 89.3336128L290.243753 84.9047081C290.243753 84.0189272 289.82471 83.5760367 288.986624 83.5760367L283.95811 83.5760367C280.605768 83.5760367 278.091511 80.9186939 278.091511 77.3755701L278.091511 52.5737039 286.472367 52.5737039C287.310453 52.5737039 287.729496 52.1308134 287.729496 51.2450325L287.729496 46.8161278C287.729496 45.9303469 287.310453 45.4874564 286.472367 45.4874564L278.091511 45.4874564 278.091511 36.1867565C278.091511 35.3009756 277.672468 34.8580851 276.834382 34.8580851L272.224911 34.8580851C271.386826 34.8580851 270.967783 35.3009756 270.967783 36.1867565L270.967783 45.4874564 264.682141 45.4874564zM324.186221 83.5760367L308.262594 83.5760367 308.262594 52.5737039 324.186221 52.5737039C327.957607 52.5737039 330.471864 55.2310467 330.471864 59.2170609L330.471864 76.9326797C330.471864 80.9186939 327.957607 83.5760367 324.186221 83.5760367zM324.186221 90.6622842C332.986121 90.6622842 337.595592 85.7904891 337.595592 76.9326797L337.595592 59.2170609C337.595592 50.3592515 332.986121 45.4874564 324.186221 45.4874564L308.262594 45.4874564 308.262594 29.98629C308.262594 29.100509 307.843551 28.6576186 307.005466 28.6576186L302.395995 28.6576186C301.557909 28.6576186 301.138866 29.100509 301.138866 29.98629L301.138866 89.3336128C301.138866 90.2193937 301.557909 90.6622842 302.395995 90.6622842L324.186221 90.6622842zM378.661788 52.5737039L378.661788 75.1611178C378.661788 80.4758034 374.890403 84.4618176 369.861889 84.4618176L362.738161 84.4618176C358.966776 84.4618176 356.452519 81.8044748 356.452519 77.8184606L356.452519 59.2170609C356.452519 55.2310467 358.966776 52.5737039 362.738161 52.5737039L378.661788 52.5737039zM362.738161 45.4874564C353.938262 45.4874564 349.328791 50.3592515 349.328791 59.2170609L349.328791 77.8184606C349.328791 86.67627 353.938262 91.5480651 362.738161 91.5480651L369.023804 91.5480651C376.147532 91.5480651 378.242746 86.2333795 378.242746 86.2333795L378.661788 86.2333795 378.661788 89.3336128C378.661788 90.2193937 379.080831 90.6622842 379.918917 90.6622842L384.528388 90.6622842C385.366474 90.6622842 385.785516 90.2193937 385.785516 89.3336128L385.785516 29.98629C385.785516 29.100509 385.366474 28.6576186 384.528388 28.6576186L379.918917 28.6576186C379.080831 28.6576186 378.661788 29.100509 378.661788 29.98629L378.661788 45.4874564 362.738161 45.4874564z"/>
      <path fill="#F44336" d="M253.02289,116.714665 L400.920357,116.714665 L400.920357,6.25257132 L253.02289,6.25257132 L253.02289,116.714665 Z M247.106992,0 L406.836256,0 L406.836256,122.967236 L247.106992,122.967236 L247.106992,0 Z"/>
    </g>
    <g transform="translate(81 201)">
      <polygon fill="#2962FF" points="23 84 395 84 395 100 23 100" opacity=".529"/>
      <polygon fill="#2962FF" points="107 150 304 150 304 166 107 166"/>
      <path fill="#2962FF" d="M38.8533333,140.695783 L94.705,103.61245 C94.3133333,101.557229 94,99.502008 94,97.3574297 C94,95.2128514 94.3133333,93.1576305 94.705,91.1024096 L39.48,54.376506 C35.25,58.8443775 29.6883333,61.6144578 23.5,61.6144578 C10.4966667,61.6144578 0,49.6405622 0,34.8072289 C0,19.9738956 10.4966667,8 23.5,8 C36.5033333,8 47,19.9738956 47,34.8072289 C47,36.9518072 46.6866667,39.0070281 46.295,41.062249 L101.52,77.7881526 C105.75,73.3202811 111.311667,70.5502008 117.5,70.5502008 C130.503333,70.5502008 141,82.5240964 141,97.3574297 C141,112.190763 130.503333,124.164659 117.5,124.164659 C111.311667,124.164659 105.75,121.394578 101.52,116.926707 L45.7466667,154.099398 C46.1383333,155.975904 46.3733333,157.941767 46.3733333,159.907631 C46.3733333,174.294177 36.1116667,186 23.5,186 C10.8883333,186 0.626666667,174.294177 0.626666667,159.907631 C0.626666667,145.521084 10.8883333,133.815261 23.5,133.815261 C29.4533333,133.815261 34.78,136.495984 38.8533333,140.695783 L127.091616,97.5045982 L38.8533333,140.695783 Z" transform="matrix(-1 0 0 1 141 0)"/>
      <polygon fill="#2962FF" points="121.437 22 304 22 304 38 107 38"/>
      <polygon fill="#2962FF" points="98.596 79 332 79 316.609 96 87 96" transform="rotate(-37 209.5 87.5)"/>
      <polygon fill="#2962FF" points="114.828 57 212 57 205.592 76 110 76" transform="scale(-1 1) rotate(-37 0 547.678)"/>
      <path fill="#2962FF" d="M371.048333,97.2238956 C370.651111,95.1340361 370.333333,93.0441767 370.333333,90.8634538 C370.333333,88.6827309 370.651111,86.5928715 371.048333,84.503012 L315.04,47.1581325 C310.75,51.7013052 305.109444,54.5180723 298.833333,54.5180723 C285.645556,54.5180723 275,42.3423695 275,27.2590361 C275,12.1757028 285.645556,0 298.833333,0 C312.021111,0 322.666667,12.1757028 322.666667,27.2590361 C322.666667,29.439759 322.348889,31.5296185 321.951667,33.6194779 L377.96,70.9643574 C382.25,66.4211847 387.890556,63.6044177 394.166667,63.6044177 C407.354444,63.6044177 418,75.7801205 418,90.8634538 C418,105.946787 407.354444,118.12249 394.166667,118.12249 C387.890556,118.12249 382.25,115.305723 377.96,110.76255 L321.395556,148.561747 C321.792778,150.46988 322.031111,152.468876 322.031111,154.467871 C322.031111,169.096888 311.623889,181 298.833333,181 C286.042778,181 275.635556,169.096888 275.635556,154.467871 C275.635556,139.838855 286.042778,127.935743 298.833333,127.935743 C304.871111,127.935743 310.273333,130.661647 314.404444,134.932229 L371.048333,97.2238956 Z"/>
      <path fill="#FFFFFF" d="M15 96.5C15 101.1937 18.5824 105 23 105 27.4176 105 31 101.1937 31 96.5 31 91.8063 27.4176 88 23 88 18.5824 88 15 91.8063 15 96.5zM290 155.5C290 160.1937 293.5824 164 298 164 302.4176 164 306 160.1937 306 155.5 306 150.8063 302.4176 147 298 147 293.5824 147 290 150.8063 290 155.5zM388 90.5C388 95.1937 391.5824 99 396 99 400.4176 99 404 95.1937 404 92.9285714 404 85.8063 400.4176 82 396 82 391.5824 82 388 85.8063 388 90.5zM290 25.5C290 30.1937 293.5824 34 298 34 302.4176 34 306 30.1937 306 25.5 306 20.8063 302.4176 17 298 17 293.5824 17 290 20.8063 290 25.5zM109 159.5C109 164.1937 112.5824 168 117 168 121.4176 168 125 164.1937 125 159.5 125 154.8063 121.4176 151 117 151 112.5824 151 109 154.8063 109 159.5zM109 31.5C109 36.1937 112.5824 40 117 40 121.4176 40 125 36.1937 125 31.5 125 26.8063 121.4176 23 117 23 112.5824 23 109 26.8063 109 31.5z"/>
      <path fill="#F44336" d="M176,97 C176,111.9094 187.6428,124 202,124 C216.3572,124 228,111.9094 228,97 C228,82.0906 216.3572,70 202,70 C187.6428,70 176,82.0906 176,97 Z" filter="url(#a)"/>
      <path fill="#FFFFFF" d="M194,97.5 C194,102.1937 197.5824,106 202,106 C206.4176,106 210,102.1937 210,97.5 C210,92.8063 206.4176,89 202,89 C197.5824,89 194,92.8063 194,97.5 Z"/>
      <path fill="#F44336" d="M176,97 C176,111.9094 187.6428,124 202,124 C216.3572,124 228,111.9094 228,97 C228,82.0906 216.3572,70 202,70 C187.6428,70 176,82.0906 176,97 Z" filter="url(#b)"/>
      <path fill="#FFFFFF" d="M194,97.5 C194,102.1937 197.5824,106 202,106 C206.4176,106 210,102.1937 210,97.5 C210,92.8063 206.4176,89 202,89 C197.5824,89 194,92.8063 194,97.5 Z"/>
    </g>
  </g>
</svg>
